<svg width="100px" height="100px" viewBox="0 0 100 100" version="1.1" xmlns="http://www.w3.org/2000/svg" xmlns:xlink="http://www.w3.org/1999/xlink" xmlns:sketch="http://www.bohemiancoding.com/sketch/ns">
    <!-- Generator: Sketch 3.3.3 (12072) - http://www.bohemiancoding.com/sketch -->
    <title>Clock</title>
    <desc>Created with Sketch.</desc>
    <defs></defs>
    <g id="Card" stroke="none" stroke-width="1" fill="none" fill-rule="evenodd" sketch:type="MSPage">
        <g id="pag.-2-v1" sketch:type="MSArtboardGroup" transform="translate(-221.000000, -252.000000)">
            <g id="Group" sketch:type="MSLayerGroup" transform="translate(221.000000, 196.000000)">
                <g id="Clock" transform="translate(0.000000, 56.000000)" sketch:type="MSShapeGroup">
                    <path d="M99.7866379,49.787069 C99.7866379,77.2844828 77.4961207,99.575 49.999569,99.575 C22.5030172,99.575 0.2125,77.2844828 0.2125,49.787069 C0.2125,22.2905172 22.5030172,0 49.999569,0 C77.4961207,0 99.7866379,22.2905172 99.7866379,49.787069" id="Fill-49" fill="#C94398"></path>
                    <path d="M52.4435345,90.6689655 C47.2556034,90.6689655 42.2219828,89.6517241 37.4806034,87.6465517 C32.9030172,85.7103448 28.7926724,82.9396552 25.2633621,79.4103448 C21.7349138,75.8818966 18.9642241,71.7715517 17.0280172,67.1939655 C15.0219828,62.4525862 14.0056034,57.4189655 14.0056034,52.2310345 C14.0056034,47.0439655 15.0219828,42.0094828 17.0280172,37.2681034 C18.9642241,32.6905172 21.7349138,28.5801724 25.2633621,25.0517241 C28.7926724,21.5224138 32.9030172,18.7517241 37.4806034,16.8155172 C42.2219828,14.8103448 47.2556034,13.7931034 52.4435345,13.7931034 C57.6306034,13.7931034 62.6650862,14.8103448 67.4056034,16.8155172 C71.9831897,18.7517241 76.0943966,21.5224138 79.6228448,25.0517241 C83.1512931,28.5801724 85.9228448,32.6905172 87.8590517,37.2681034 C89.8642241,42.0094828 90.8806034,47.0439655 90.8806034,52.2310345 C90.8806034,57.4189655 89.8642241,62.4525862 87.8590517,67.1939655 C85.9228448,71.7715517 83.1512931,75.8818966 79.6228448,79.4103448 C76.0943966,82.9396552 71.9831897,85.7103448 67.4056034,87.6465517 C62.6650862,89.6517241 57.6306034,90.6689655 52.4435345,90.6689655" id="Fill-50" fill-opacity="0.53" fill="#661341"></path>
                    <path d="M49.7193966,86.9439655 C44.7823276,86.9439655 39.9926724,85.9767241 35.4823276,84.0689655 C31.1262931,82.2267241 27.2150862,79.5896552 23.8564655,76.2310345 C20.4978448,72.8724138 17.8616379,68.9612069 16.0193966,64.6060345 C14.1116379,60.0956897 13.1435345,55.3051724 13.1435345,50.3681034 C13.1435345,45.4318966 14.1116379,40.6413793 16.0193966,36.1310345 C17.8616379,31.7758621 20.4978448,27.8637931 23.8564655,24.5060345 C27.2150862,21.1474138 31.1262931,18.5103448 35.4823276,16.6681034 C39.9926724,14.7603448 44.7823276,13.7931034 49.7193966,13.7931034 C54.6564655,13.7931034 59.4461207,14.7603448 63.9564655,16.6681034 C68.3125,18.5103448 72.2237069,21.1474138 75.5823276,24.5060345 C78.9409483,27.8637931 81.5771552,31.7758621 83.4202586,36.1310345 C85.3271552,40.6413793 86.2952586,45.4318966 86.2952586,50.3681034 C86.2952586,55.3051724 85.3271552,60.0956897 83.4202586,64.6060345 C81.5771552,68.9612069 78.9409483,72.8724138 75.5823276,76.2310345 C72.2237069,79.5896552 68.3125,82.2267241 63.9564655,84.0689655 C59.4461207,85.9767241 54.6564655,86.9439655 49.7193966,86.9439655" id="Fill-51" fill="#FFFFFF"></path>
                    <path d="M50.4426724,15.5172414 C31.2711207,15.5172414 15.7297414,31.0586207 15.7297414,50.2301724 C15.7297414,59.8163793 19.6150862,68.4948276 25.8969828,74.7767241 L74.9883621,25.6844828 C68.7064655,19.4025862 60.0288793,15.5172414 50.4426724,15.5172414" id="Fill-54" fill="#FFFFFF"></path>
                    <path d="M49.8573276,12.0689655 C44.6702586,12.0689655 39.6357759,13.0853448 34.8943966,15.0913793 C30.3168103,17.0267241 26.2064655,19.7982759 22.6780172,23.3267241 C19.1487069,26.8560345 16.3780172,30.9663793 14.4418103,35.5439655 C12.4366379,40.2844828 11.4193966,45.3189655 11.4193966,50.5060345 C11.4193966,55.6939655 12.4366379,60.7284483 14.4418103,65.4689655 C16.3780172,70.0465517 19.1487069,74.1568966 22.6780172,77.6862069 C26.2064655,81.2146552 30.3168103,83.9853448 34.8943966,85.9215517 C39.6357759,87.9275862 44.6702586,88.9439655 49.8573276,88.9439655 C55.0443966,88.9439655 60.0788793,87.9275862 64.8202586,85.9215517 C69.3978448,83.9853448 73.5081897,81.2146552 77.0366379,77.6862069 C80.5659483,74.1568966 83.3366379,70.0465517 85.2728448,65.4689655 C87.2780172,60.7284483 88.2952586,55.6939655 88.2952586,50.5060345 C88.2952586,45.3189655 87.2780172,40.2844828 85.2728448,35.5439655 C83.3366379,30.9663793 80.5659483,26.8560345 77.0366379,23.3267241 C73.5081897,19.7982759 69.3978448,17.0267241 64.8202586,15.0913793 C60.0788793,13.0853448 55.0443966,12.0689655 49.8573276,12.0689655 L49.8573276,12.0689655 Z M49.8573276,15.7931034 C69.0288793,15.7931034 84.5702586,31.3344828 84.5702586,50.5060345 C84.5702586,69.6775862 69.0288793,85.2198276 49.8573276,85.2198276 C30.6857759,85.2198276 15.1443966,69.6775862 15.1443966,50.5060345 C15.1443966,31.3344828 30.6857759,15.7931034 49.8573276,15.7931034 L49.8573276,15.7931034 Z" id="Fill-52" fill="#D99923"></path>
                    <path d="M74.3038793,25.862069 L25.2125,74.9543103 C31.4943966,81.2362069 40.1728448,85.1215517 49.7581897,85.1215517 C68.9297414,85.1215517 84.4711207,69.5793103 84.4711207,50.4077586 C84.4711207,40.8224138 80.5857759,32.1439655 74.3038793,25.862069" id="Fill-53" fill="#E2E3E0"></path>
                    <path d="M49.350431,72.4137931 L51.4728448,72.4137931 L51.4728448,79.9586207 L49.350431,79.9586207 L49.350431,72.4137931 Z" id="Fill-55" fill="#13100E"></path>
                    <path d="M49.350431,20.6896552 L51.4728448,20.6896552 L51.4728448,28.2344828 L49.350431,28.2344828 L49.350431,20.6896552 Z" id="Fill-56" fill="#13100E"></path>
                    <path d="M26.9366379,58.7089661 L48.7461207,48.5029316 C49.9469828,47.9408626 51.3762931,48.458104 51.9383621,49.6589661 C52.499569,50.8598281 51.9823276,52.2891385 50.7814655,52.8503454 C50.6383621,52.9175868 50.4797414,52.9718971 50.3323276,53.0089661 L26.9366379,58.7089661" id="Fill-57" fill="#D99923"></path>
                    <path d="M20.0400862,49.137931 L27.5857759,49.137931 L27.5857759,51.2612069 L20.0400862,51.2612069 L20.0400862,49.137931 Z" id="Fill-58" fill="#13100E"></path>
                    <path d="M72.6262931,49.137931 L80.1719828,49.137931 L80.1719828,51.2612069 L72.6262931,51.2612069 L72.6262931,49.137931 Z" id="Fill-59" fill="#13100E"></path>
                    <path d="M70.2505213,35.3448276 L51.6729351,52.9060345 C50.7108662,53.8163793 49.1919006,53.7732759 48.2815558,52.8112069 C47.3720731,51.8482759 47.4143144,50.3293103 48.3772455,49.4198276 C48.4850041,49.3181034 48.6108662,49.2215517 48.7306937,49.1431034 L70.2505213,35.3448276" id="Fill-60" fill="#13100E"></path>
                    <path d="M37.2814655,39.6551724 L51.649569,48.65 C52.7788793,49.3568966 53.1211207,50.8456897 52.4142241,51.975 C51.7073276,53.1043103 50.2185345,53.4465517 49.0892241,52.7396552 C48.8943966,52.6181034 48.7159483,52.4637931 48.5693966,52.3017241 L37.2814655,39.6551724" id="Fill-61" fill="#13100E"></path>
                    <path d="M51.0142241,50.8318966 C51.0142241,51.2913793 50.6418103,51.6637931 50.1823276,51.6637931 C49.7228448,51.6637931 49.350431,51.2913793 49.350431,50.8318966 C49.350431,50.3724138 49.7228448,50 50.1823276,50 C50.6418103,50 51.0142241,50.3724138 51.0142241,50.8318966" id="Fill-62" fill="#FFFFFF"></path>
                </g>
            </g>
        </g>
    </g>
</svg>
