<?xml version="1.0" encoding="UTF-8" standalone="no"?>
<svg width="242px" height="20px" viewBox="0 0 242 20" version="1.1" xmlns="http://www.w3.org/2000/svg" xmlns:xlink="http://www.w3.org/1999/xlink" xmlns:sketch="http://www.bohemiancoding.com/sketch/ns">
    <!-- Generator: Sketch 3.3.3 (12072) - http://www.bohemiancoding.com/sketch -->
    <title>Cloclo  Katinka  Bro</title>
    <desc>Created with Sketch.</desc>
    <defs></defs>
    <g id="Card" stroke="none" stroke-width="1" fill="none" fill-rule="evenodd" sketch:type="MSPage">
        <g id="pag.-2-v1" sketch:type="MSArtboardGroup" transform="translate(-298.000000, -156.000000)">
            <rect id="Rectangle-12" stroke="#AC206D" sketch:type="MSShapeGroup" x="34" y="32" width="774" height="531"></rect>
            <g id="Volledige-Naam" sketch:type="MSLayerGroup" transform="translate(298.000000, 59.000000)" fill="#931D5E">
                <path d="M6.75878788,102.058131 L6.8338303,102.058131 C6.94639394,102.058131 6.98391515,101.983112 6.98391515,101.908092 L6.98391515,101.457978 L6.98391515,101.195411 C6.98391515,99.3574428 5.52058788,97.8570606 3.68204848,97.8570606 C1.84350909,97.8570606 0.342660606,99.3574428 0.342660606,101.195411 L0.342660606,113.04843 C0.342660606,114.886398 1.84350909,116.38678 3.68204848,116.38678 C5.52058788,116.38678 6.98391515,114.886398 6.98391515,113.04843 L6.98391515,112.22322 C6.98391515,112.110691 6.94639394,112.035672 6.8338303,112.035672 L6.75878788,112.035672 C6.68374545,112.035672 6.60870303,112.110691 6.60870303,112.22322 L6.60870303,113.04843 C6.60870303,114.661341 5.29546061,115.974175 3.68204848,115.974175 C2.06863636,115.974175 0.755393939,114.661341 0.755393939,113.04843 L0.755393939,101.195411 C0.755393939,99.5825001 2.06863636,98.2696657 3.68204848,98.2696657 C5.29546061,98.2696657 6.60870303,99.5825001 6.60870303,101.195411 L6.60870303,101.457978 L6.60870303,101.908092 C6.60870303,101.983112 6.68374545,102.058131 6.75878788,102.058131 L6.75878788,102.058131 Z M11.7115879,116.161723 C11.7115879,116.274252 11.7866303,116.38678 11.8991939,116.38678 L15.8014,116.38678 C15.8764424,116.38678 15.9514848,116.311761 15.9514848,116.236742 L15.9514848,116.124213 C15.9514848,116.049194 15.8764424,115.974175 15.8014,115.974175 L12.1243212,115.974175 L12.1243212,98.0446084 C12.1243212,97.9320797 12.0492788,97.8570606 11.9367152,97.8570606 L11.8616727,97.8570606 C11.7866303,97.8570606 11.7115879,97.9320797 11.7115879,98.0446084 L11.7115879,116.161723 Z M22.8929091,116.38678 C24.7314485,116.38678 26.1947758,114.886398 26.1947758,113.04843 L26.1947758,101.195411 C26.1947758,99.3574428 24.7314485,97.8570606 22.8929091,97.8570606 C21.0543697,97.8570606 19.5535212,99.3574428 19.5535212,101.195411 L19.5535212,113.04843 C19.5535212,114.886398 21.0543697,116.38678 22.8929091,116.38678 L22.8929091,116.38678 Z M22.8929091,98.2696657 C24.5063212,98.2696657 25.8195636,99.5825001 25.8195636,101.195411 L25.8195636,113.04843 C25.8195636,114.661341 24.5063212,115.974175 22.8929091,115.974175 C21.279497,115.974175 19.9662545,114.661341 19.9662545,113.04843 L19.9662545,101.195411 C19.9662545,99.5825001 21.279497,98.2696657 22.8929091,98.2696657 L22.8929091,98.2696657 Z M37.7513091,102.058131 L37.8263515,102.058131 C37.9389152,102.058131 37.9764364,101.983112 37.9764364,101.908092 L37.9764364,101.457978 L37.9764364,101.195411 C37.9764364,99.3574428 36.5131091,97.8570606 34.6745697,97.8570606 C32.8360303,97.8570606 31.3351818,99.3574428 31.3351818,101.195411 L31.3351818,113.04843 C31.3351818,114.886398 32.8360303,116.38678 34.6745697,116.38678 C36.5131091,116.38678 37.9764364,114.886398 37.9764364,113.04843 L37.9764364,112.22322 C37.9764364,112.110691 37.9389152,112.035672 37.8263515,112.035672 L37.7513091,112.035672 C37.6762667,112.035672 37.6012242,112.110691 37.6012242,112.22322 L37.6012242,113.04843 C37.6012242,114.661341 36.2879818,115.974175 34.6745697,115.974175 C33.0611576,115.974175 31.7479152,114.661341 31.7479152,113.04843 L31.7479152,101.195411 C31.7479152,99.5825001 33.0611576,98.2696657 34.6745697,98.2696657 C36.2879818,98.2696657 37.6012242,99.5825001 37.6012242,101.195411 L37.6012242,101.457978 L37.6012242,101.908092 C37.6012242,101.983112 37.6762667,102.058131 37.7513091,102.058131 L37.7513091,102.058131 Z M42.7041091,116.161723 C42.7041091,116.274252 42.7791515,116.38678 42.8917152,116.38678 L46.7939212,116.38678 C46.8689636,116.38678 46.9440061,116.311761 46.9440061,116.236742 L46.9440061,116.124213 C46.9440061,116.049194 46.8689636,115.974175 46.7939212,115.974175 L43.1168424,115.974175 L43.1168424,98.0446084 C43.1168424,97.9320797 43.0418,97.8570606 42.9292364,97.8570606 L42.8541939,97.8570606 C42.7791515,97.8570606 42.7041091,97.9320797 42.7041091,98.0446084 L42.7041091,116.161723 Z M53.8854303,116.38678 C55.7239697,116.38678 57.187297,114.886398 57.187297,113.04843 L57.187297,101.195411 C57.187297,99.3574428 55.7239697,97.8570606 53.8854303,97.8570606 C52.0468909,97.8570606 50.5460424,99.3574428 50.5460424,101.195411 L50.5460424,113.04843 C50.5460424,114.886398 52.0468909,116.38678 53.8854303,116.38678 L53.8854303,116.38678 Z M53.8854303,98.2696657 C55.4988424,98.2696657 56.8120848,99.5825001 56.8120848,101.195411 L56.8120848,113.04843 C56.8120848,114.661341 55.4988424,115.974175 53.8854303,115.974175 C52.2720182,115.974175 50.9587758,114.661341 50.9587758,113.04843 L50.9587758,101.195411 C50.9587758,99.5825001 52.2720182,98.2696657 53.8854303,98.2696657 L53.8854303,98.2696657 Z M79.7750667,104.008627 L79.7750667,98.0446084 C79.7750667,97.9695893 79.7000242,97.8945702 79.6249818,97.8945702 L79.5499394,97.8945702 C79.4373758,97.8945702 79.3623333,97.9695893 79.3623333,98.0446084 L79.3623333,104.008627 C79.3623333,105.621538 78.0490909,106.934373 76.4732,106.934373 L73.5465455,106.934373 L73.5465455,98.0446084 C73.5465455,97.9695893 73.471503,97.8945702 73.3589394,97.8945702 L73.283897,97.8945702 C73.2088545,97.8945702 73.1338121,97.9695893 73.1338121,98.0446084 L73.1338121,106.934373 L73.1338121,107.309468 L73.1338121,116.236742 C73.1338121,116.311761 73.2088545,116.38678 73.283897,116.38678 L73.3589394,116.38678 C73.471503,116.38678 73.5465455,116.311761 73.5465455,116.236742 L73.5465455,107.309468 L76.4732,107.309468 C78.0490909,107.309468 79.3623333,108.622303 79.3623333,110.235213 L79.3623333,116.236742 C79.3623333,116.311761 79.4373758,116.38678 79.5499394,116.38678 L79.6249818,116.38678 C79.7000242,116.38678 79.7750667,116.311761 79.7750667,116.236742 L79.7750667,110.235213 C79.7750667,108.80985 78.8745576,107.572035 77.5988364,107.12192 C78.8745576,106.671806 79.7750667,105.433991 79.7750667,104.008627 L79.7750667,104.008627 Z M88.2173394,97.8570606 C86.4163212,97.8570606 84.9154727,99.3574428 84.9154727,101.195411 L84.9154727,116.236742 C84.9154727,116.311761 84.9905152,116.38678 85.0655576,116.38678 L85.1406,116.38678 C85.2531636,116.38678 85.3282061,116.311761 85.3282061,116.236742 L85.3282061,107.309468 L91.1439939,107.309468 L91.1439939,116.236742 C91.1439939,116.311761 91.2190364,116.38678 91.2940788,116.38678 L91.4066424,116.38678 C91.4816848,116.38678 91.5567273,116.311761 91.5567273,116.236742 L91.5567273,101.195411 C91.5567273,99.3574428 90.0558788,97.8570606 88.2173394,97.8570606 L88.2173394,97.8570606 Z M85.3282061,106.896863 L85.3282061,101.195411 C85.3282061,99.5825001 86.6414485,98.2696657 88.2173394,98.2696657 C89.8307515,98.2696657 91.1439939,99.5825001 91.1439939,101.195411 L91.1439939,106.896863 L85.3282061,106.896863 Z M97.4850788,116.236742 C97.4850788,116.311761 97.5601212,116.38678 97.6351636,116.38678 L97.7102061,116.38678 C97.8227697,116.38678 97.8602909,116.311761 97.8602909,116.236742 L97.8602909,98.2696657 L99.999,98.2696657 C100.074042,98.2696657 100.149085,98.1946466 100.149085,98.1196275 L100.149085,98.0446084 C100.149085,97.9320797 100.074042,97.8570606 99.999,97.8570606 L95.3463697,97.8570606 C95.2713273,97.8570606 95.1962848,97.9320797 95.1962848,98.0446084 L95.1962848,98.1196275 C95.1962848,98.1946466 95.2713273,98.2696657 95.3463697,98.2696657 L97.4850788,98.2696657 L97.4850788,116.236742 Z M104.351461,116.236742 C104.351461,116.311761 104.426503,116.38678 104.501545,116.38678 L104.576588,116.38678 C104.689152,116.38678 104.764194,116.311761 104.764194,116.236742 L104.764194,98.0446084 C104.764194,97.9320797 104.689152,97.8570606 104.576588,97.8570606 L104.501545,97.8570606 C104.426503,97.8570606 104.351461,97.9320797 104.351461,98.0446084 L104.351461,116.236742 Z M116.0956,116.236742 C116.0956,116.311761 116.170642,116.38678 116.283206,116.38678 L116.358248,116.38678 C116.433291,116.38678 116.508333,116.311761 116.508333,116.236742 L116.508333,101.195411 C116.508333,99.3574428 115.045006,97.8570606 113.206467,97.8570606 C111.367927,97.8570606 109.867079,99.3574428 109.867079,101.195411 L109.867079,116.236742 C109.867079,116.311761 109.942121,116.38678 110.017164,116.38678 L110.129727,116.38678 C110.20477,116.38678 110.279812,116.311761 110.279812,116.236742 L110.279812,101.195411 C110.279812,99.5825001 111.593055,98.2696657 113.206467,98.2696657 C114.819879,98.2696657 116.0956,99.5825001 116.0956,101.195411 L116.0956,116.236742 Z M128.289994,104.008627 L128.289994,98.0446084 C128.289994,97.9695893 128.214952,97.8945702 128.139909,97.8945702 L128.064867,97.8945702 C127.952303,97.8945702 127.877261,97.9695893 127.877261,98.0446084 L127.877261,104.008627 C127.877261,105.621538 126.564018,106.934373 124.988127,106.934373 L122.061473,106.934373 L122.061473,98.0446084 C122.061473,97.9695893 121.98643,97.8945702 121.873867,97.8945702 L121.798824,97.8945702 C121.723782,97.8945702 121.648739,97.9695893 121.648739,98.0446084 L121.648739,106.934373 L121.648739,107.309468 L121.648739,116.236742 C121.648739,116.311761 121.723782,116.38678 121.798824,116.38678 L121.873867,116.38678 C121.98643,116.38678 122.061473,116.311761 122.061473,116.236742 L122.061473,107.309468 L124.988127,107.309468 C126.564018,107.309468 127.877261,108.622303 127.877261,110.235213 L127.877261,116.236742 C127.877261,116.311761 127.952303,116.38678 128.064867,116.38678 L128.139909,116.38678 C128.214952,116.38678 128.289994,116.311761 128.289994,116.236742 L128.289994,110.235213 C128.289994,108.80985 127.389485,107.572035 126.113764,107.12192 C127.389485,106.671806 128.289994,105.433991 128.289994,104.008627 L128.289994,104.008627 Z M136.732267,97.8570606 C134.931248,97.8570606 133.4304,99.3574428 133.4304,101.195411 L133.4304,116.236742 C133.4304,116.311761 133.505442,116.38678 133.580485,116.38678 L133.655527,116.38678 C133.768091,116.38678 133.843133,116.311761 133.843133,116.236742 L133.843133,107.309468 L139.658921,107.309468 L139.658921,116.236742 C139.658921,116.311761 139.733964,116.38678 139.809006,116.38678 L139.92157,116.38678 C139.996612,116.38678 140.071655,116.311761 140.071655,116.236742 L140.071655,101.195411 C140.071655,99.3574428 138.570806,97.8570606 136.732267,97.8570606 L136.732267,97.8570606 Z M133.843133,106.896863 L133.843133,101.195411 C133.843133,99.5825001 135.156376,98.2696657 136.732267,98.2696657 C138.345679,98.2696657 139.658921,99.5825001 139.658921,101.195411 L139.658921,106.896863 L133.843133,106.896863 Z M159.357558,97.8570606 L156.243297,97.8570606 C156.130733,97.8570606 156.01817,97.9695893 156.01817,98.0821179 L156.01817,116.161723 C156.01817,116.274252 156.130733,116.38678 156.243297,116.38678 L159.357558,116.38678 C161.196097,116.38678 162.659424,114.886398 162.659424,113.04843 L162.659424,110.235213 C162.659424,108.80985 161.758915,107.572035 160.483194,107.12192 C161.758915,106.671806 162.659424,105.433991 162.659424,104.008627 L162.659424,101.195411 C162.659424,99.3574428 161.196097,97.8570606 159.357558,97.8570606 L159.357558,97.8570606 Z M162.284212,110.235213 L162.284212,113.04843 C162.284212,114.661341 160.97097,115.974175 159.357558,115.974175 L156.430903,115.974175 L156.430903,107.309468 L159.357558,107.309468 C160.97097,107.309468 162.284212,108.622303 162.284212,110.235213 L162.284212,110.235213 Z M162.284212,104.008627 C162.284212,105.621538 160.97097,106.934373 159.357558,106.934373 L156.430903,106.934373 L156.430903,98.2696657 L159.357558,98.2696657 C160.97097,98.2696657 162.284212,99.5825001 162.284212,101.195411 L162.284212,104.008627 Z M174.291,103.971118 L174.291,101.195411 C174.291,99.3574428 172.790152,97.8570606 170.951612,97.8570606 L167.837352,97.8570606 C167.724788,97.8570606 167.612224,97.9695893 167.612224,98.0821179 L167.612224,116.236742 C167.612224,116.311761 167.687267,116.38678 167.79983,116.38678 L167.874873,116.38678 C167.949915,116.38678 168.024958,116.311761 168.024958,116.236742 L168.024958,107.309468 L170.951612,107.309468 C172.565024,107.309468 173.878267,108.622303 173.878267,110.235213 L173.878267,116.236742 C173.878267,116.311761 173.953309,116.38678 174.028352,116.38678 L174.103394,116.38678 C174.215958,116.38678 174.291,116.311761 174.291,116.236742 L174.291,110.235213 C174.291,108.772341 173.35297,107.572035 172.077248,107.12192 C173.35297,106.634296 174.291,105.433991 174.291,103.971118 L174.291,103.971118 Z M170.951612,106.896863 L168.024958,106.896863 L168.024958,98.2696657 L170.951612,98.2696657 C172.565024,98.2696657 173.878267,99.5825001 173.878267,101.195411 L173.878267,103.971118 C173.878267,105.584029 172.565024,106.896863 170.951612,106.896863 L170.951612,106.896863 Z M182.695752,116.38678 C184.534291,116.38678 185.997618,114.886398 185.997618,113.04843 L185.997618,101.195411 C185.997618,99.3574428 184.534291,97.8570606 182.695752,97.8570606 C180.857212,97.8570606 179.356364,99.3574428 179.356364,101.195411 L179.356364,113.04843 C179.356364,114.886398 180.857212,116.38678 182.695752,116.38678 L182.695752,116.38678 Z M182.695752,98.2696657 C184.309164,98.2696657 185.622406,99.5825001 185.622406,101.195411 L185.622406,113.04843 C185.622406,114.661341 184.309164,115.974175 182.695752,115.974175 C181.082339,115.974175 179.769097,114.661341 179.769097,113.04843 L179.769097,101.195411 C179.769097,99.5825001 181.082339,98.2696657 182.695752,98.2696657 L182.695752,98.2696657 Z M197.366545,116.236742 C197.366545,116.311761 197.441588,116.38678 197.554152,116.38678 L197.629194,116.38678 C197.704236,116.38678 197.779279,116.311761 197.779279,116.236742 L197.779279,101.195411 C197.779279,99.3574428 196.315952,97.8570606 194.477412,97.8570606 C192.638873,97.8570606 191.138024,99.3574428 191.138024,101.195411 L191.138024,116.236742 C191.138024,116.311761 191.213067,116.38678 191.288109,116.38678 L191.400673,116.38678 C191.475715,116.38678 191.550758,116.311761 191.550758,116.236742 L191.550758,101.195411 C191.550758,99.5825001 192.864,98.2696657 194.477412,98.2696657 C196.090824,98.2696657 197.366545,99.5825001 197.366545,101.195411 L197.366545,116.236742 Z M206.221552,97.8570606 C204.383012,97.8570606 202.919685,99.3574428 202.919685,101.195411 L202.919685,113.04843 C202.919685,114.886398 204.383012,116.38678 206.221552,116.38678 C208.060091,116.38678 209.560939,114.886398 209.560939,113.04843 L209.560939,107.009392 C209.560939,106.934373 209.485897,106.859354 209.373333,106.859354 L207.384709,106.859354 C207.309667,106.859354 207.234624,106.934373 207.234624,107.009392 L207.234624,107.12192 C207.234624,107.19694 207.309667,107.271959 207.384709,107.271959 L209.148206,107.271959 L209.148206,113.04843 C209.148206,114.661341 207.834964,115.974175 206.221552,115.974175 C204.608139,115.974175 203.294897,114.661341 203.294897,113.04843 L203.294897,101.195411 C203.294897,99.5825001 204.608139,98.2696657 206.221552,98.2696657 C207.834964,98.2696657 209.148206,99.5825001 209.148206,101.195411 L209.148206,101.908092 C209.148206,101.983112 209.223248,102.058131 209.298291,102.058131 L209.373333,102.058131 C209.485897,102.058131 209.560939,101.983112 209.560939,101.908092 L209.560939,101.195411 C209.560939,99.3574428 208.060091,97.8570606 206.221552,97.8570606 L206.221552,97.8570606 Z M215.076558,98.2696657 L218.753636,98.2696657 C218.828679,98.2696657 218.903721,98.1946466 218.903721,98.1196275 L218.903721,98.0446084 C218.903721,97.9320797 218.828679,97.8570606 218.753636,97.8570606 L214.85143,97.8570606 C214.738867,97.8570606 214.663824,97.9695893 214.663824,98.0821179 L214.663824,116.161723 C214.663824,116.274252 214.738867,116.38678 214.85143,116.38678 L218.753636,116.38678 C218.828679,116.38678 218.903721,116.311761 218.903721,116.236742 L218.903721,116.124213 C218.903721,116.049194 218.828679,115.974175 218.753636,115.974175 L215.076558,115.974175 L215.076558,107.309468 L218.753636,107.309468 C218.828679,107.309468 218.903721,107.234449 218.903721,107.15943 L218.903721,107.084411 C218.903721,106.971882 218.828679,106.896863 218.753636,106.896863 L215.076558,106.896863 L215.076558,98.2696657 Z M230.535297,103.971118 L230.535297,101.195411 C230.535297,99.3574428 229.034448,97.8570606 227.195909,97.8570606 L224.081648,97.8570606 C223.969085,97.8570606 223.856521,97.9695893 223.856521,98.0821179 L223.856521,116.236742 C223.856521,116.311761 223.931564,116.38678 224.044127,116.38678 L224.11917,116.38678 C224.194212,116.38678 224.269255,116.311761 224.269255,116.236742 L224.269255,107.309468 L227.195909,107.309468 C228.809321,107.309468 230.122564,108.622303 230.122564,110.235213 L230.122564,116.236742 C230.122564,116.311761 230.197606,116.38678 230.272648,116.38678 L230.347691,116.38678 C230.460255,116.38678 230.535297,116.311761 230.535297,116.236742 L230.535297,110.235213 C230.535297,108.772341 229.597267,107.572035 228.321545,107.12192 C229.597267,106.634296 230.535297,105.433991 230.535297,103.971118 L230.535297,103.971118 Z M227.195909,106.896863 L224.269255,106.896863 L224.269255,98.2696657 L227.195909,98.2696657 C228.809321,98.2696657 230.122564,99.5825001 230.122564,101.195411 L230.122564,103.971118 C230.122564,105.584029 228.809321,106.896863 227.195909,106.896863 L227.195909,106.896863 Z M241.641576,102.058131 L241.716618,102.058131 C241.829182,102.058131 241.904224,101.983112 241.904224,101.908092 L241.904224,101.195411 C241.904224,99.3574428 240.403376,97.8570606 238.564836,97.8570606 C237.664327,97.8570606 236.838861,98.1946466 236.201,98.832309 C235.600661,99.4699714 235.225448,100.295182 235.225448,101.195411 L235.225448,102.170659 L235.26297,102.170659 L235.26297,102.620774 C235.26297,102.845831 235.338012,103.145908 235.488097,103.333456 L241.341406,111.172952 C241.416448,111.285481 241.491491,111.473029 241.491491,111.623067 L241.491491,112.035672 L241.491491,112.110691 L241.491491,112.073182 L241.491491,113.04843 C241.491491,114.661341 240.178248,115.974175 238.564836,115.974175 C236.951424,115.974175 235.638182,114.661341 235.638182,113.04843 L235.638182,112.335749 C235.638182,112.260729 235.563139,112.18571 235.488097,112.18571 L235.413055,112.18571 C235.300491,112.18571 235.225448,112.260729 235.225448,112.335749 L235.225448,113.04843 C235.225448,114.886398 236.726297,116.38678 238.564836,116.38678 C239.465345,116.38678 240.290812,116.049194 240.928673,115.411532 C241.529012,114.77387 241.904224,113.948659 241.904224,113.04843 L241.904224,112.110691 L241.904224,112.035672 L241.866703,112.035672 L241.866703,111.623067 C241.866703,111.39801 241.791661,111.097933 241.641576,110.910385 L235.788267,103.070889 C235.713224,102.95836 235.638182,102.770812 235.638182,102.620774 L235.638182,102.170659 C235.638182,102.170659 235.638182,102.170659 235.638182,102.13315 L235.638182,101.195411 C235.638182,99.5825001 236.951424,98.2696657 238.564836,98.2696657 C240.178248,98.2696657 241.491491,99.5825001 241.491491,101.195411 L241.491491,101.908092 C241.491491,101.983112 241.566533,102.058131 241.641576,102.058131 L241.641576,102.058131 Z" id="Cloclo--Katinka--Bro" sketch:type="MSShapeGroup"></path>
            </g>
        </g>
    </g>
</svg>