<svg width="100px" height="100px" viewBox="0 0 100 100" version="1.1" xmlns="http://www.w3.org/2000/svg" xmlns:xlink="http://www.w3.org/1999/xlink" xmlns:sketch="http://www.bohemiancoding.com/sketch/ns">
    <!-- Generator: Sketch 3.3.3 (12072) - http://www.bohemiancoding.com/sketch -->
    <title>Ruler</title>
    <desc>Created with Sketch.</desc>
    <defs></defs>
    <g id="Card" stroke="none" stroke-width="1" fill="none" fill-rule="evenodd" sketch:type="MSPage">
        <g id="pag.-2-v1" sketch:type="MSArtboardGroup" transform="translate(-522.000000, -252.000000)">
            <g id="Group" sketch:type="MSLayerGroup" transform="translate(221.000000, 196.000000)">
                <g id="Ruler" transform="translate(301.000000, 56.000000)" sketch:type="MSShapeGroup">
                    <path d="M99.8269841,49.8269841 C99.8269841,77.3452381 77.518254,99.6539683 50,99.6539683 C22.481746,99.6539683 0.173015873,77.3452381 0.173015873,49.8269841 C0.173015873,22.3079365 22.481746,0 50,0 C77.518254,0 99.8269841,22.3079365 99.8269841,49.8269841" id="Fill-41" fill="#C94398"></path>
                    <path d="M83.1215688,39.3005649 C83.1215688,39.3005649 91.3297973,45.7786759 99.8884061,52.7754255 C98.7244606,66.4997263 93.0112111,76.9293629 86.2382748,83.8740429 C75.1562307,96.763632 58.606775,99.2028415 54.199721,99.6481417 L17.3251439,60.3486387 C17.3251439,60.3486387 75.778342,62.3683927 83.1215688,39.3005649 Z" id="Path-708" opacity="0.530841884" fill="#661341"></path>
                    <rect id="Rectangle-35" fill="#D99923" x="17.2413793" y="38.7931034" width="68.1034483" height="21.5517241"></rect>
                    <rect id="Rectangle-36" opacity="0.375874534" fill="#F0C26D" x="17.2413793" y="50" width="68.1034483" height="10.3448276"></rect>
                    <rect id="Rectangle-53" fill="#13100E" x="76.7241379" y="51.7241379" width="0.862068966" height="8.62068966"></rect>
                    <rect id="Rectangle-53-Copy" fill="#13100E" x="80.1724138" y="51.7241379" width="0.862068966" height="8.62068966"></rect>
                    <rect id="Rectangle-53-Copy-2" fill="#13100E" x="83.6206897" y="51.7241379" width="0.862068966" height="8.62068966"></rect>
                    <rect id="Rectangle-52" fill="#13100E" x="73.2758621" y="51.7241379" width="0.862068966" height="8.62068966"></rect>
                    <rect id="Rectangle-51" fill="#13100E" x="69.8275862" y="51.7241379" width="0.862068966" height="8.62068966"></rect>
                    <rect id="Rectangle-50" fill="#13100E" x="66.3793103" y="51.7241379" width="0.862068966" height="8.62068966"></rect>
                    <rect id="Rectangle-49" fill="#13100E" x="62.9310345" y="51.7241379" width="0.862068966" height="8.62068966"></rect>
                    <rect id="Rectangle-48" fill="#13100E" x="59.4827586" y="51.7241379" width="0.862068966" height="8.62068966"></rect>
                    <rect id="Rectangle-47" fill="#13100E" x="56.0344828" y="51.7241379" width="0.862068966" height="8.62068966"></rect>
                    <rect id="Rectangle-46" fill="#13100E" x="52.5862069" y="51.7241379" width="0.862068966" height="8.62068966"></rect>
                    <rect id="Rectangle-45" fill="#13100E" x="49.137931" y="51.7241379" width="0.862068966" height="8.62068966"></rect>
                    <rect id="Rectangle-44" fill="#13100E" x="45.6896552" y="51.7241379" width="0.862068966" height="8.62068966"></rect>
                    <rect id="Rectangle-43" fill="#13100E" x="42.2413793" y="51.7241379" width="0.862068966" height="8.62068966"></rect>
                    <rect id="Rectangle-42" fill="#13100E" x="38.7931034" y="51.7241379" width="0.862068966" height="8.62068966"></rect>
                    <rect id="Rectangle-41" fill="#13100E" x="35.3448276" y="51.7241379" width="0.862068966" height="8.62068966"></rect>
                    <rect id="Rectangle-40" fill="#13100E" x="31.8965517" y="51.7241379" width="0.862068966" height="8.62068966"></rect>
                    <rect id="Rectangle-39" fill="#13100E" x="28.4482759" y="51.7241379" width="0.862068966" height="8.62068966"></rect>
                    <rect id="Rectangle-38" fill="#13100E" x="25" y="51.7241379" width="0.862068966" height="8.62068966"></rect>
                    <rect id="Rectangle-37-Copy" fill="#13100E" x="21.5517241" y="51.7241379" width="0.862068966" height="8.62068966"></rect>
                    <rect id="Rectangle-37" fill="#13100E" x="18.1034483" y="51.7241379" width="0.862068966" height="8.62068966"></rect>
                    <rect id="Rectangle-37-Copy-19" fill="#13100E" x="81.8965517" y="55.1724138" width="0.862068966" height="5.17241379"></rect>
                    <rect id="Rectangle-37-Copy-18" fill="#13100E" x="78.4482759" y="55.1724138" width="0.862068966" height="5.17241379"></rect>
                    <rect id="Rectangle-37-Copy-17" fill="#13100E" x="75" y="55.1724138" width="0.862068966" height="5.17241379"></rect>
                    <rect id="Rectangle-37-Copy-16" fill="#13100E" x="71.5517241" y="55.1724138" width="0.862068966" height="5.17241379"></rect>
                    <rect id="Rectangle-37-Copy-15" fill="#13100E" x="68.1034483" y="55.1724138" width="0.862068966" height="5.17241379"></rect>
                    <rect id="Rectangle-37-Copy-14" fill="#13100E" x="64.6551724" y="55.1724138" width="0.862068966" height="5.17241379"></rect>
                    <rect id="Rectangle-37-Copy-13" fill="#13100E" x="61.2068966" y="55.1724138" width="0.862068966" height="5.17241379"></rect>
                    <rect id="Rectangle-37-Copy-12" fill="#13100E" x="57.7586207" y="55.1724138" width="0.862068966" height="5.17241379"></rect>
                    <rect id="Rectangle-37-Copy-11" fill="#13100E" x="54.3103448" y="55.1724138" width="0.862068966" height="5.17241379"></rect>
                    <rect id="Rectangle-37-Copy-10" fill="#13100E" x="50.862069" y="55.1724138" width="0.862068966" height="5.17241379"></rect>
                    <rect id="Rectangle-37-Copy-9" fill="#13100E" x="47.4137931" y="55.1724138" width="0.862068966" height="5.17241379"></rect>
                    <rect id="Rectangle-37-Copy-8" fill="#13100E" x="43.9655172" y="55.1724138" width="0.862068966" height="5.17241379"></rect>
                    <rect id="Rectangle-37-Copy-7" fill="#13100E" x="40.5172414" y="55.1724138" width="0.862068966" height="5.17241379"></rect>
                    <rect id="Rectangle-37-Copy-6" fill="#13100E" x="37.0689655" y="55.1724138" width="0.862068966" height="5.17241379"></rect>
                    <rect id="Rectangle-37-Copy-5" fill="#13100E" x="33.6206897" y="55.1724138" width="0.862068966" height="5.17241379"></rect>
                    <rect id="Rectangle-37-Copy-4" fill="#13100E" x="30.1724138" y="55.1724138" width="0.862068966" height="5.17241379"></rect>
                    <rect id="Rectangle-37-Copy-3" fill="#13100E" x="26.7241379" y="55.1724138" width="0.862068966" height="5.17241379"></rect>
                    <rect id="Rectangle-37-Copy-20" fill="#13100E" x="23.2758621" y="55.1724138" width="0.862068966" height="5.17241379"></rect>
                    <rect id="Rectangle-37-Copy-2" fill="#13100E" x="19.8275862" y="55.1724138" width="0.862068966" height="5.17241379"></rect>
                    <path d="M43.5713939,26.4266667 L44.6005656,26.4266667 C44.8900201,26.4266667 45.1151514,26.2015354 45.1151514,25.9120808 L45.1151514,24.8185859 C45.1151514,22.792404 43.4427474,21.12 41.4165656,21.12 C39.3582221,21.12 37.7179797,22.792404 37.7179797,24.8185859 L37.7179797,33.3414142 C37.7179797,35.367596 39.3582221,37.0400001 41.4165656,37.0400001 C43.4427474,37.0400001 45.1151514,35.367596 45.1151514,33.3414142 L45.1151514,32.1514344 C45.1151514,31.8619798 44.8900201,31.6368485 44.6005656,31.6368485 L43.5713939,31.6368485 C43.2819393,31.6368485 43.056808,31.8619798 43.056808,32.1514344 L43.056808,33.3414142 C43.056808,34.2419395 42.3170908,34.9816566 41.4165656,34.9816566 C40.5160403,34.9816566 39.7763231,34.2419395 39.7763231,33.3414142 L39.7763231,24.8185859 C39.7763231,23.9180606 40.5160403,23.1783434 41.4165656,23.1783434 C42.3170908,23.1783434 43.056808,23.9180606 43.056808,24.8185859 L43.056808,25.9120808 C43.056808,26.2015354 43.2819393,26.4266667 43.5713939,26.4266667 L43.5713939,26.4266667 Z M56.5325252,21.12 C55.5033535,21.12 54.538505,21.5702626 53.8631111,22.2778182 C53.1877171,21.5702626 52.2228686,21.12 51.1936969,21.12 C49.1353535,21.12 47.4629494,22.792404 47.4629494,24.8185859 L47.4629494,36.5254142 C47.4629494,36.7827071 47.7202424,37.0400001 47.9775353,37.0400001 L49.006707,37.0400001 C49.2961616,37.0400001 49.5212929,36.7827071 49.5212929,36.5254142 L49.5212929,24.8185859 C49.5212929,23.9180606 50.26101,23.1783434 51.1936969,23.1783434 C52.0942222,23.1783434 52.8339394,23.9180606 52.8339394,24.8185859 L52.8339394,36.5254142 C52.8339394,36.7827071 53.0590707,37.0400001 53.3485252,37.0400001 L54.3776969,37.0400001 C54.6671515,37.0400001 54.8922828,36.7827071 54.8922828,36.5254142 L54.8922828,24.8185859 C54.8922828,23.9180606 55.632,23.1783434 56.5325252,23.1783434 C57.4652121,23.1783434 58.2049293,23.9180606 58.2049293,24.8185859 L58.2049293,36.5254142 C58.2049293,36.7827071 58.4300606,37.0400001 58.7195151,37.0400001 L59.7486869,37.0400001 C60.0381414,37.0400001 60.2632727,36.7827071 60.2632727,36.5254142 L60.2632727,24.8185859 C60.2632727,22.792404 58.5908687,21.12 56.5325252,21.12 L56.5325252,21.12 Z" id="CM" fill="#6E4F14"></path>
                </g>
            </g>
        </g>
    </g>
</svg>
