<svg width="100px" height="100px" viewBox="0 0 100 100" version="1.1" xmlns="http://www.w3.org/2000/svg" xmlns:xlink="http://www.w3.org/1999/xlink" xmlns:sketch="http://www.bohemiancoding.com/sketch/ns">
    <!-- Generator: Sketch 3.3.3 (12072) - http://www.bohemiancoding.com/sketch -->
    <title>Scale</title>
    <desc>Created with Sketch.</desc>
    <defs></defs>
    <g id="Card" stroke="none" stroke-width="1" fill="none" fill-rule="evenodd" sketch:type="MSPage">
        <g id="pag.-2-v1" sketch:type="MSArtboardGroup" transform="translate(-371.000000, -252.000000)">
            <g id="Group" sketch:type="MSLayerGroup" transform="translate(221.000000, 196.000000)">
                <g id="Scale" transform="translate(150.000000, 56.000000)" sketch:type="MSShapeGroup">
                    <path d="M99.4700787,50.0031746 C99.4700787,77.5214286 77.3370079,99.8301587 50.0354331,99.8301587 C22.7338583,99.8301587 0.600787402,77.5214286 0.600787402,50.0031746 C0.600787402,22.484127 22.7338583,0.176190476 50.0354331,0.176190476 C77.3370079,0.176190476 99.4700787,22.484127 99.4700787,50.0031746" id="Fill-41" fill="#C94398"></path>
                    <path d="M97.5362205,36.2087302 L82.092126,26.5468254 L82.092126,26.7079365 L78.2952756,26.7079365 L78.2952756,30.3404762 L50.584252,30.3404762 L50.584252,57.6873016 L34.9433071,57.6873016 L34.9433071,70.0142857 C40.6606299,71.4373016 40.6606299,80.4730159 34.9433071,81.8960317 L34.9433071,82.4825397 L60.3834646,98.7277778 C82.715748,93.931746 99.4700787,73.9428571 99.4700787,50.0031746 C99.4700787,45.2150794 98.7866142,40.5912698 97.5362205,36.2087302" id="Fill-42" opacity="0.53" fill="#661341"></path>
                    <path d="M61.9141732,79.7404762 L61.9141732,74.615873 L58.9393701,74.615873 L58.9393701,79.7404762 L57.0795276,79.7404762 L57.0795276,82.7396825 L63.7740157,82.7396825 L63.7740157,79.7404762 L61.9141732,79.7404762" id="Fill-43" fill="#A17219"></path>
                    <path d="M69.3125984,71.9777778 C69.3125984,74.7388889 67.0937008,76.9769841 64.3535433,76.9769841 L35.6976378,76.9769841 C32.9574803,76.9769841 30.7370079,74.7388889 30.7370079,71.9777778 L30.7370079,43.0936508 C30.7370079,40.3325397 32.9574803,38.0944444 35.6976378,38.0944444 L64.3535433,38.0944444 C67.0937008,38.0944444 69.3125984,40.3325397 69.3125984,43.0936508 L69.3125984,71.9777778" id="Fill-44" fill="#D99923"></path>
                    <path d="M44.1007874,32.7484127 L55.2598425,32.7484127 L55.2598425,43.9960317 L44.1007874,43.9960317 L44.1007874,32.7484127 Z" id="Fill-45" fill="#D99923"></path>
                    <path d="M64.3535433,38.0944444 L49.9551181,38.0944444 L49.9551181,49.6142857 L50.0188976,49.6142857 L50.0188976,76.9769841 L64.3535433,76.9769841 C67.0937008,76.9769841 69.3125984,74.7388889 69.3125984,71.9777778 L69.3125984,43.0936508 C69.3125984,40.3325397 67.0937008,38.0944444 64.3535433,38.0944444" id="Fill-46" fill="#A17219"></path>
                    <path d="M49.9551181,32.7484127 L55.2598425,32.7484127 L55.2598425,43.9960317 L49.9551181,43.9960317 L49.9551181,32.7484127 Z" id="Fill-47" fill="#A17219"></path>
                    <path d="M15.3748031,26.5 L15.3748031,27.9579365 C15.3748031,30.718254 17.5952756,32.9571429 20.3354331,32.9571429 L77.1661417,32.9571429 C79.9047244,32.9571429 82.1251969,30.718254 82.1251969,27.9579365 L82.1251969,26.5 L15.3748031,26.5" id="Fill-48" fill="#F3D044"></path>
                    <path d="M49.9551181,26.5 L49.9551181,32.9571429 L77.1661417,32.9571429 C79.9047244,32.9571429 82.1251969,30.718254 82.1251969,27.9579365 L82.1251969,26.5 L49.9551181,26.5" id="Fill-49" fill="#D9B03D"></path>
                    <path d="M39.7496063,79.4801587 L39.7496063,74.3555556 L36.7748031,74.3555556 L36.7748031,79.4801587 L34.9149606,79.4801587 L34.9149606,82.4793651 L41.6094488,82.4793651 L41.6094488,79.4801587 L39.7496063,79.4801587" id="Fill-50" fill="#D99923"></path>
                    <path d="M49.6795276,43.3952381 C42.1606299,43.3952381 36.0622047,49.5388889 36.0622047,57.1190476 C36.0622047,64.6992063 42.1606299,70.8428571 49.6795276,70.8428571 C57.1984252,70.8428571 63.296063,64.6992063 63.296063,57.1190476 C63.296063,49.5388889 57.1984252,43.3952381 49.6795276,43.3952381" id="Fill-51" fill="#A69C94"></path>
                    <path d="M49.6795276,44.7150794 C42.8826772,44.7150794 37.3732283,50.2690476 37.3732283,57.1190476 C37.3732283,63.9698413 42.8826772,69.5238095 49.6795276,69.5238095 C56.4771654,69.5238095 61.988189,63.9698413 61.988189,57.1190476 C61.988189,50.2690476 56.4771654,44.7150794 49.6795276,44.7150794" id="Fill-52" fill="#FFFDEC"></path>
                    <path d="M49.9551181,44.7285714 L49.9551181,69.5103175 C56.6244094,69.3611111 61.988189,63.8769841 61.988189,57.1190476 C61.988189,50.3619048 56.6244094,44.8777778 49.9551181,44.7285714" id="Fill-53" fill="#E7ECE9"></path>
                    <path d="M59.5472441,66.4706349 C59.7102362,66.6349206 59.7102362,66.9015873 59.5472441,67.065873 C59.384252,67.2301587 59.1204724,67.2301587 58.9559055,67.065873 L57.3173228,65.4126984 C57.1527559,65.247619 57.1527559,64.9809524 57.3173228,64.8166667 C57.4787402,64.6531746 57.7433071,64.6531746 57.9055118,64.8166667 L59.5472441,66.4706349" id="Fill-54" fill="#13100E"></path>
                    <path d="M41.3094488,64.7365079 C41.4708661,64.5722222 41.7346457,64.5722222 41.8992126,64.7365079 C42.0622047,64.9007937 42.0622047,65.1674603 41.8992126,65.3309524 L40.2590551,66.9849206 C40.0952756,67.15 39.8307087,67.15 39.6677165,66.9849206 C39.5055118,66.8214286 39.5055118,66.5539683 39.6677165,66.3904762 L41.3094488,64.7365079" id="Fill-55" fill="#395462"></path>
                    <path d="M58.8622047,47.0436508 C59.0251969,46.8793651 59.2889764,46.8793651 59.4527559,47.0436508 C59.6165354,47.2079365 59.6165354,47.4746032 59.4527559,47.6388889 L57.811811,49.2928571 C57.6496063,49.4571429 57.3850394,49.4571429 57.2212598,49.2928571 C57.0582677,49.1277778 57.0582677,48.8619048 57.2212598,48.697619 L58.8622047,47.0436508" id="Fill-56" fill="#395462"></path>
                    <path d="M42.0259843,48.8103175 C42.1889764,48.9753968 42.1889764,49.2420635 42.0259843,49.4071429 C41.8629921,49.5706349 41.5992126,49.5706349 41.4362205,49.4071429 L39.7944882,47.7531746 C39.6322835,47.5888889 39.6322835,47.3214286 39.7944882,47.1579365 C39.9590551,46.9936508 40.2228346,46.9936508 40.3866142,47.1579365 L42.0259843,48.8103175" id="Fill-57" fill="#395462"></path>
                    <path d="M41.3094488,64.7365079 C41.4708661,64.5722222 41.7346457,64.5722222 41.8992126,64.7365079 C42.0622047,64.9007937 42.0622047,65.1674603 41.8992126,65.3309524 L40.2590551,66.9849206 C40.0952756,67.15 39.8307087,67.15 39.6677165,66.9849206 C39.5055118,66.8214286 39.5055118,66.5539683 39.6677165,66.3904762 L41.3094488,64.7365079" id="Fill-58" fill="#395462"></path>
                    <path d="M58.8622047,47.0436508 C59.0251969,46.8793651 59.2889764,46.8793651 59.4527559,47.0436508 C59.6165354,47.2079365 59.6165354,47.4746032 59.4527559,47.6388889 L57.811811,49.2928571 C57.6496063,49.4571429 57.3850394,49.4571429 57.2212598,49.2928571 C57.0582677,49.1277778 57.0582677,48.8619048 57.2212598,48.697619 L58.8622047,47.0436508" id="Fill-59" fill="#395462"></path>
                    <path d="M42.0259843,48.8103175 C42.1889764,48.9753968 42.1889764,49.2420635 42.0259843,49.4071429 C41.8629921,49.5706349 41.5992126,49.5706349 41.4362205,49.4071429 L39.7944882,47.7531746 C39.6322835,47.5888889 39.6322835,47.3214286 39.7944882,47.1579365 C39.9590551,46.9936508 40.2228346,46.9936508 40.3866142,47.1579365 L42.0259843,48.8103175" id="Fill-60" fill="#395462"></path>
                    <path d="M50.0929134,70.7746032 C50.0929134,71.0071429 49.9055118,71.1968254 49.6748031,71.1968254 C49.4440945,71.1968254 49.2566929,71.0071429 49.2566929,70.7746032 L49.2566929,68.4365079 C49.2566929,68.2039683 49.4440945,68.0166667 49.6748031,68.0166667 C49.9055118,68.0166667 50.0929134,68.2039683 50.0929134,68.4365079 L50.0929134,70.7746032" id="Fill-61" fill="#395462"></path>
                    <path d="M38.411811,56.5492063 C38.6417323,56.5492063 38.8291339,56.7380952 38.8291339,56.9706349 C38.8291339,57.2039683 38.6417323,57.3920635 38.411811,57.3920635 L36.0929134,57.3920635 C35.8614173,57.3920635 35.6748031,57.2039683 35.6748031,56.9706349 C35.6748031,56.7380952 35.8614173,56.5492063 36.0929134,56.5492063 L38.411811,56.5492063" id="Fill-62" fill="#13100E"></path>
                    <path d="M63.2362205,56.5492063 C63.4685039,56.5492063 63.6551181,56.7380952 63.6551181,56.9706349 C63.6551181,57.2039683 63.4685039,57.3920635 63.2362205,57.3920635 L60.9173228,57.3920635 C60.6866142,57.3920635 60.4976378,57.2039683 60.4976378,56.9706349 C60.4976378,56.7380952 60.6866142,56.5492063 60.9173228,56.5492063 L63.2362205,56.5492063" id="Fill-63" fill="#13100E"></path>
                    <path d="M50.0929134,45.8015873 C50.0929134,46.0333333 49.9055118,46.2214286 49.6748031,46.2214286 C49.4440945,46.2214286 49.2566929,46.0333333 49.2566929,45.8015873 L49.2566929,43.4626984 C49.2566929,43.2301587 49.4440945,43.0412698 49.6748031,43.0412698 C49.9055118,43.0412698 50.0929134,43.2301587 50.0929134,43.4626984 L50.0929134,45.8015873" id="Fill-64" fill="#13100E"></path>
                    <path d="M50.0929134,70.7746032 C50.0929134,71.0071429 49.9055118,71.1968254 49.6748031,71.1968254 C49.4440945,71.1968254 49.2566929,71.0071429 49.2566929,70.7746032 L49.2566929,68.4365079 C49.2566929,68.2039683 49.4440945,68.0166667 49.6748031,68.0166667 C49.9055118,68.0166667 50.0929134,68.2039683 50.0929134,68.4365079 L50.0929134,70.7746032" id="Fill-65" fill="#13100E"></path>
                    <path d="M41.3094488,64.7365079 C41.4708661,64.5722222 41.7346457,64.5722222 41.8992126,64.7365079 C42.0622047,64.9007937 42.0622047,65.1674603 41.8992126,65.3309524 L40.2590551,66.9849206 C40.0952756,67.15 39.8307087,67.15 39.6677165,66.9849206 C39.5055118,66.8214286 39.5055118,66.5539683 39.6677165,66.3904762 L41.3094488,64.7365079" id="Fill-66" fill="#13100E"></path>
                    <path d="M58.8622047,47.0436508 C59.0251969,46.8793651 59.2889764,46.8793651 59.4527559,47.0436508 C59.6165354,47.2079365 59.6165354,47.4746032 59.4527559,47.6388889 L57.811811,49.2928571 C57.6496063,49.4571429 57.3850394,49.4571429 57.2212598,49.2928571 C57.0582677,49.1277778 57.0582677,48.8619048 57.2212598,48.697619 L58.8622047,47.0436508" id="Fill-67" fill="#13100E"></path>
                    <path d="M42.0259843,48.8103175 C42.1889764,48.9753968 42.1889764,49.2420635 42.0259843,49.4071429 C41.8629921,49.5706349 41.5992126,49.5706349 41.4362205,49.4071429 L39.7944882,47.7531746 C39.6322835,47.5888889 39.6322835,47.3214286 39.7944882,47.1579365 C39.9590551,46.9936508 40.2228346,46.9936508 40.3866142,47.1579365 L42.0259843,48.8103175" id="Fill-68" fill="#13100E"></path>
                    <path d="M50.1787402,56.6166667 L49.0818898,57.7246032 L43.0685039,50.5015873 L50.1787402,56.6166667" id="Fill-69" fill="#D99923"></path>
                    <path d="M51.0220472,57.1555556 C51.0220472,57.9555556 50.3779528,58.6047619 49.584252,58.6047619 C48.7889764,58.6047619 48.1448819,57.9555556 48.1448819,57.1555556 C48.1448819,56.3539683 48.7889764,55.7055556 49.584252,55.7055556 C50.3779528,55.7055556 51.0220472,56.3539683 51.0220472,57.1555556" id="Fill-70" fill="#1A1D2B"></path>
                    <path d="M50.5574803,57.1555556 C50.5574803,57.697619 50.1228346,58.1373016 49.584252,58.1373016 C49.0456693,58.1373016 48.607874,57.697619 48.607874,57.1555556 C48.607874,56.6126984 49.0456693,56.1730159 49.584252,56.1730159 C50.1228346,56.1730159 50.5574803,56.6126984 50.5574803,57.1555556" id="Fill-71" fill="#FFFDEC"></path>
                    <path d="M49.6795276,70.8428571 C42.1606299,70.8428571 36.0622047,64.6992063 36.0622047,57.1190476 C36.0622047,49.5388889 42.1606299,43.3952381 49.6795276,43.3952381 C57.1984252,43.3952381 63.296063,49.5388889 63.296063,57.1190476 C63.296063,64.6992063 57.1984252,70.8428571 49.6795276,70.8428571 L49.6795276,70.8428571 Z M49.6795276,42.1785714 C41.4937008,42.1785714 34.8574803,48.8674603 34.8574803,57.1190476 C34.8574803,65.3706349 41.4937008,72.0595238 49.6795276,72.0595238 C57.8653543,72.0595238 64.5031496,65.3706349 64.5031496,57.1190476 C64.5031496,48.8674603 57.8653543,42.1785714 49.6795276,42.1785714 L49.6795276,42.1785714 Z" id="Fill-72" fill="#13100E"></path>
                    <path d="M46.577702,14.8388283 L47.6068738,14.8388283 C47.8963283,14.8388283 48.1214596,14.613697 48.1214596,14.3242424 L48.1214596,13.2307475 C48.1214596,11.172404 46.4490556,9.53216162 44.4228738,9.53216162 C42.3966919,9.53216162 40.7242879,11.172404 40.7242879,13.2307475 L40.7242879,21.7535758 C40.7242879,23.7797576 42.3966919,25.4200001 44.4228738,25.4200001 C46.4490556,25.4200001 48.1214596,23.7797576 48.1214596,21.7535758 L48.1214596,16.9293334 C48.1214596,16.6398788 47.8963283,16.4147475 47.6068738,16.4147475 L44.9374596,16.4147475 C44.6480051,16.4147475 44.4228738,16.6398788 44.4228738,16.9293334 L44.4228738,17.9585051 C44.4228738,18.215798 44.6480051,18.4409293 44.9374596,18.4409293 L46.0631162,18.4409293 L46.0631162,21.7535758 C46.0631162,22.6541011 45.323399,23.3938182 44.4228738,23.3938182 C43.5223485,23.3938182 42.7826313,22.6541011 42.7826313,21.7535758 L42.7826313,13.2307475 C42.7826313,12.2980606 43.5223485,11.5905051 44.4228738,11.5905051 C45.323399,11.5905051 46.0631162,12.2980606 46.0631162,13.2307475 L46.0631162,14.3242424 C46.0631162,14.613697 46.2882475,14.8388283 46.577702,14.8388283 L46.577702,14.8388283 Z M57.5448132,13.1985859 C57.5448132,11.172404 55.9045708,9.5 53.8462273,9.5 L51.1768132,9.5 C50.5979041,9.5 50.1476415,9.95026263 50.1476415,10.5291717 L50.1476415,24.9054142 C50.1476415,25.1627071 50.3727728,25.4200001 50.6622273,25.4200001 L51.691399,25.4200001 C51.948692,25.4200001 52.2059849,25.1627071 52.2059849,24.9054142 L52.2059849,18.473091 L53.8462273,18.473091 C54.7467526,18.473091 55.4864698,19.2128081 55.4864698,20.1133334 L55.4864698,24.9054142 C55.4864698,25.1627071 55.7116011,25.4200001 56.0010556,25.4200001 L57.0302274,25.4200001 C57.3196819,25.4200001 57.5448132,25.1627071 57.5448132,24.9054142 L57.5448132,20.1133334 C57.5448132,19.052 57.1267122,18.1193132 56.4191566,17.4439192 C57.1267122,16.7685253 57.5448132,15.8036768 57.5448132,14.7423435 L57.5448132,13.1985859 Z M55.4864698,14.7423435 C55.4864698,15.6750303 54.7467526,16.4147475 53.8462273,16.4147475 L52.2059849,16.4147475 L52.2059849,11.5583434 L53.8462273,11.5583434 C54.7467526,11.5583434 55.4864698,12.2980606 55.4864698,13.1985859 L55.4864698,14.7423435 Z" id="GR" fill="#6E4F14"></path>
                </g>
            </g>
        </g>
    </g>
</svg>
