<?xml version="1.0" encoding="UTF-8" standalone="no"?>
<svg width="175px" height="20px" viewBox="0 0 175 20" version="1.1" xmlns="http://www.w3.org/2000/svg" xmlns:xlink="http://www.w3.org/1999/xlink" xmlns:sketch="http://www.bohemiancoding.com/sketch/ns">
    <!-- Generator: Sketch 3.3.3 (12072) - http://www.bohemiancoding.com/sketch -->
    <title>Anthony,  Annemiek  </title>
    <desc>Created with Sketch.</desc>
    <defs></defs>
    <g id="Card" stroke="none" stroke-width="1" fill="none" fill-rule="evenodd" sketch:type="MSPage">
        <g id="pag.-2-v1" sketch:type="MSArtboardGroup" transform="translate(-334.000000, -463.000000)">
            <rect id="Rectangle-12" stroke="#AC206D" sketch:type="MSShapeGroup" x="34" y="32" width="774" height="531"></rect>
            <g id="Anthony,--Annemiek-+-Museumstraat-40-/-21-+-+32-(0)490-583125-&amp;--Copy" sketch:type="MSLayerGroup" transform="translate(292.000000, 463.000000)" fill="#BF267A">
                <path d="M45.6430001,0.04 C44.1070001,0.04 42.8590001,1.288 42.8590001,2.824 L42.8590001,15.616 L42.8590001,15.616 C42.8590001,15.832 43.0510001,16 43.2430001,16 L44.0110001,16 C44.2270001,16 44.3950001,15.832 44.3950001,15.616 L44.3950001,15.616 L44.3950001,8.776 L46.8670001,8.776 L46.8670001,15.616 C46.8670001,15.832 47.0350001,16 47.2510001,16 L48.0190001,16 C48.2350001,16 48.4030001,15.832 48.4030001,15.616 L48.4030001,2.824 C48.4030001,1.288 47.1550001,0.04 45.6430001,0.04 L45.6430001,0.04 Z M46.8670001,7.24 L44.3950001,7.24 L44.3950001,2.824 C44.3950001,2.128 44.9470001,1.576 45.6430001,1.576 C46.3150001,1.576 46.8670001,2.128 46.8670001,2.824 L46.8670001,7.24 Z M53.5290001,0.04 C51.9930001,0.04 50.7450001,1.288 50.7450001,2.824 L50.7450001,15.616 C50.7450001,15.832 50.9130001,16 51.1290001,16 L51.8970001,16 C52.1130001,16 52.2810001,15.832 52.2810001,15.616 L52.2810001,2.824 C52.2810001,2.128 52.8330001,1.576 53.5290001,1.576 C54.2010001,1.576 54.7530001,2.128 54.7530001,2.824 L54.7530001,15.616 C54.7530001,15.832 54.9210001,16 55.1370001,16 L55.9050001,16 C56.1210001,16 56.2890001,15.832 56.2890001,15.616 L56.2890001,2.824 C56.2890001,1.288 55.0410001,0.04 53.5290001,0.04 L53.5290001,0.04 Z M61.7510001,0.04 L58.0550001,0.04 C57.8390001,0.04 57.6710001,0.232 57.6710001,0.424 L57.6710001,1.192 C57.6710001,1.408 57.8390001,1.576 58.0550001,1.576 L59.1350001,1.576 L59.1350001,15.616 C59.1350001,15.832 59.3030001,16 59.5190001,16 L60.2870001,16 C60.5030001,16 60.6710001,15.832 60.6710001,15.616 L60.6710001,1.576 L61.7510001,1.576 C61.9670001,1.576 62.1350001,1.408 62.1350001,1.192 L62.1350001,0.424 C62.1350001,0.232 61.9670001,0.04 61.7510001,0.04 L61.7510001,0.04 Z M69.3730001,0.04 L68.6290001,0.04 C68.4130001,0.04 68.2450001,0.232 68.2450001,0.424 L68.2450001,7.264 L65.7730001,7.264 L65.7730001,0.424 C65.7730001,0.232 65.6050001,0.04 65.3890001,0.04 L64.6210001,0.04 C64.4050001,0.04 64.2370001,0.232 64.2370001,0.424 C64.2370001,0.424 64.2370001,0.424 64.2370001,0.448 L64.2370001,15.616 C64.2370001,15.832 64.4050001,16 64.6210001,16 L65.3890001,16 C65.6050001,16 65.7730001,15.832 65.7730001,15.616 L65.7730001,8.8 L68.2450001,8.8 L68.2450001,15.616 C68.2450001,15.832 68.4130001,16 68.6290001,16 L69.3730001,16 C69.5890001,16 69.7570001,15.832 69.7570001,15.616 L69.7570001,0.424 C69.7570001,0.232 69.5890001,0.04 69.3730001,0.04 L69.3730001,0.04 Z M76.1070001,13.24 C76.1070001,13.912 75.5550001,14.464 74.8830001,14.464 C74.1870001,14.464 73.6350001,13.912 73.6350001,13.24 L73.6350001,2.824 C73.6350001,2.128 74.1870001,1.576 74.8830001,1.576 C75.5550001,1.576 76.1070001,2.128 76.1070001,2.824 L76.1070001,13.24 Z M74.8830001,0.04 C73.3470001,0.04 72.0990001,1.288 72.0990001,2.824 L72.0990001,13.24 C72.0990001,14.776 73.3470001,16 74.8830001,16 C76.3950001,16 77.6430001,14.776 77.6430001,13.24 L77.6430001,2.824 C77.6430001,1.288 76.3950001,0.04 74.8830001,0.04 L74.8830001,0.04 Z M82.7690001,0.04 C81.2330001,0.04 79.9850001,1.288 79.9850001,2.824 L79.9850001,15.616 C79.9850001,15.832 80.1530001,16 80.3690001,16 L81.1370001,16 C81.3530001,16 81.5210001,15.832 81.5210001,15.616 L81.5210001,2.824 C81.5210001,2.128 82.0730001,1.576 82.7690001,1.576 C83.4410001,1.576 83.9930001,2.128 83.9930001,2.824 L83.9930001,15.616 C83.9930001,15.832 84.1610001,16 84.3770001,16 L85.1450001,16 C85.3610001,16 85.5290001,15.832 85.5290001,15.616 L85.5290001,2.824 C85.5290001,1.288 84.2810001,0.04 82.7690001,0.04 L82.7690001,0.04 Z M92.791,0.04 L92.023,0.04 C91.807,0.04 91.639,0.232 91.639,0.424 L91.639,6.016 C91.639,6.688 91.087,7.24 90.415,7.24 C89.719,7.24 89.167,6.688 89.167,6.016 L89.167,0.424 C89.167,0.232 88.999,0.04 88.783,0.04 L88.015,0.04 C87.799,0.04 87.631,0.232 87.631,0.424 L87.631,6.016 C87.631,7.288 88.471,8.344 89.647,8.68 L89.647,15.616 C89.647,15.832 89.815,16 90.031,16 L90.799,16 C90.991,16 91.183,15.832 91.183,15.616 L91.183,8.68 C92.335,8.344 93.175,7.288 93.175,6.016 L93.175,0.424 C93.175,0.232 93.007,0.04 92.791,0.04 L92.791,0.04 Z M96.429,13.648 L95.661,13.648 C95.445,13.648 95.277,13.816 95.277,14.032 L95.277,18.832 C95.277,19.048 95.445,19.216 95.661,19.216 L96.429,19.216 C96.645,19.216 96.813,19.048 96.813,18.832 L96.813,14.032 C96.813,13.816 96.645,13.648 96.429,13.648 L96.429,13.648 Z M109.551,0.04 C108.015,0.04 106.767,1.288 106.767,2.824 L106.767,15.616 L106.767,15.616 C106.767,15.832 106.959,16 107.151,16 L107.919,16 C108.135,16 108.303,15.832 108.303,15.616 L108.303,15.616 L108.303,8.776 L110.775,8.776 L110.775,15.616 C110.775,15.832 110.943,16 111.159,16 L111.927,16 C112.143,16 112.311,15.832 112.311,15.616 L112.311,2.824 C112.311,1.288 111.063,0.04 109.551,0.04 L109.551,0.04 Z M110.775,7.24 L108.303,7.24 L108.303,2.824 C108.303,2.128 108.855,1.576 109.551,1.576 C110.223,1.576 110.775,2.128 110.775,2.824 L110.775,7.24 Z M117.437,0.04 C115.901,0.04 114.653,1.288 114.653,2.824 L114.653,15.616 C114.653,15.832 114.821,16 115.037,16 L115.805,16 C116.021,16 116.189,15.832 116.189,15.616 L116.189,2.824 C116.189,2.128 116.741,1.576 117.437,1.576 C118.109,1.576 118.661,2.128 118.661,2.824 L118.661,15.616 C118.661,15.832 118.829,16 119.045,16 L119.813,16 C120.029,16 120.197,15.832 120.197,15.616 L120.197,2.824 C120.197,1.288 118.949,0.04 117.437,0.04 L117.437,0.04 Z M125.323,0.04 C123.787,0.04 122.539,1.288 122.539,2.824 L122.539,15.616 C122.539,15.832 122.707,16 122.923,16 L123.691,16 C123.907,16 124.075,15.832 124.075,15.616 L124.075,2.824 C124.075,2.128 124.627,1.576 125.323,1.576 C125.995,1.576 126.547,2.128 126.547,2.824 L126.547,15.616 C126.547,15.832 126.715,16 126.931,16 L127.699,16 C127.915,16 128.083,15.832 128.083,15.616 L128.083,2.824 C128.083,1.288 126.835,0.04 125.323,0.04 L125.323,0.04 Z M134.049,1.576 C134.265,1.576 134.433,1.408 134.433,1.192 L134.433,0.424 C134.433,0.232 134.265,0.04 134.049,0.04 L131.193,0.04 C130.761,0.04 130.425,0.4 130.425,0.808 L130.425,15.232 C130.425,15.664 130.761,16 131.193,16 L134.049,16 C134.265,16 134.433,15.832 134.433,15.616 L134.433,14.848 C134.433,14.656 134.265,14.464 134.049,14.464 L131.961,14.464 L131.961,8.8 L134.049,8.8 C134.265,8.8 134.433,8.608 134.433,8.416 L134.433,7.648 C134.433,7.432 134.265,7.264 134.049,7.264 L131.961,7.264 L131.961,1.576 L134.049,1.576 Z M143.543,0.04 C142.775,0.04 142.055,0.376 141.551,0.904 C141.047,0.376 140.327,0.04 139.559,0.04 C138.023,0.04 136.775,1.288 136.775,2.824 L136.775,15.616 C136.775,15.832 136.967,16 137.159,16 L137.927,16 C138.143,16 138.311,15.832 138.311,15.616 L138.311,2.824 C138.311,2.128 138.863,1.576 139.559,1.576 C140.231,1.576 140.783,2.128 140.783,2.824 L140.783,15.616 C140.783,15.832 140.951,16 141.167,16 L141.935,16 C142.151,16 142.319,15.832 142.319,15.616 L142.319,2.824 C142.319,2.128 142.871,1.576 143.543,1.576 C144.239,1.576 144.791,2.128 144.791,2.824 L144.791,15.616 C144.791,15.832 144.959,16 145.175,16 L145.943,16 C146.135,16 146.327,15.832 146.327,15.616 L146.327,2.824 C146.327,1.288 145.079,0.04 143.543,0.04 L143.543,0.04 Z M150.205,0.424 C150.205,0.232 150.037,0.04 149.821,0.04 L149.053,0.04 C148.837,0.04 148.669,0.232 148.669,0.424 C148.669,0.424 148.669,0.424 148.669,0.448 L148.669,15.616 C148.669,15.832 148.837,16 149.053,16 L149.821,16 C150.037,16 150.205,15.832 150.205,15.616 L150.205,0.424 L150.205,0.424 Z M156.171,1.576 C156.387,1.576 156.555,1.408 156.555,1.192 L156.555,0.424 C156.555,0.232 156.387,0.04 156.171,0.04 L153.315,0.04 C152.883,0.04 152.547,0.4 152.547,0.808 L152.547,15.232 C152.547,15.664 152.883,16 153.315,16 L156.171,16 C156.387,16 156.555,15.832 156.555,15.616 L156.555,14.848 C156.555,14.656 156.387,14.464 156.171,14.464 L154.083,14.464 L154.083,8.8 L156.171,8.8 C156.387,8.8 156.555,8.608 156.555,8.416 L156.555,7.648 C156.555,7.432 156.387,7.264 156.171,7.264 L154.083,7.264 L154.083,1.576 L156.171,1.576 Z M164.441,0.424 C164.441,0.232 164.249,0.04 164.057,0.04 L163.289,0.04 C163.073,0.04 162.905,0.232 162.905,0.424 L162.905,6.016 C162.905,6.688 162.353,7.24 161.657,7.24 L160.433,7.24 L160.433,0.424 C160.433,0.232 160.265,0.04 160.049,0.04 L159.281,0.04 C159.065,0.04 158.897,0.232 158.897,0.424 C158.897,0.424 158.897,0.424 158.897,0.448 L158.897,7.24 L158.897,8.776 L158.897,15.616 C158.897,15.832 159.065,16 159.281,16 L160.049,16 C160.265,16 160.433,15.832 160.433,15.616 L160.433,8.776 L161.657,8.776 C162.353,8.776 162.905,9.328 162.905,10.024 L162.905,15.616 C162.905,15.832 163.073,16 163.289,16 L164.057,16 C164.249,16 164.441,15.832 164.441,15.616 L164.441,10.024 C164.441,9.232 164.105,8.512 163.577,8.008 C164.105,7.504 164.441,6.808 164.441,6.016 L164.441,0.424 Z M181.163,5.656 L179.939,5.656 L179.939,4.432 C179.939,4.216 179.747,4.048 179.555,4.048 L178.787,4.048 C178.571,4.048 178.403,4.216 178.403,4.432 L178.403,5.656 L177.155,5.656 C176.483,5.656 175.931,5.104 175.931,4.432 L175.931,2.8 C175.931,2.128 176.483,1.576 177.155,1.576 L177.971,1.576 C178.187,1.576 178.355,1.384 178.355,1.192 L178.355,0.424 C178.355,0.208 178.187,0.04 177.971,0.04 L177.155,0.04 C175.643,0.04 174.395,1.264 174.395,2.8 L174.395,4.432 C174.395,5.2 174.707,5.92 175.259,6.424 C174.707,6.928 174.395,7.648 174.395,8.44 L174.395,13.216 C174.395,14.752 175.643,16 177.155,16 L179.555,16 C179.747,16 179.939,15.808 179.939,15.616 L179.939,7.192 L181.163,7.192 C181.379,7.192 181.547,7.024 181.547,6.808 L181.547,6.04 C181.547,5.824 181.379,5.656 181.163,5.656 L181.163,5.656 Z M178.403,14.44 L177.155,14.44 C176.483,14.44 175.931,13.888 175.931,13.216 L175.931,8.44 C175.931,7.744 176.483,7.192 177.155,7.192 L178.403,7.192 L178.403,14.44 Z M196.805,0.424 C196.805,0.232 196.613,0.04 196.421,0.04 L195.653,0.04 C195.437,0.04 195.269,0.232 195.269,0.424 L195.269,6.016 C195.269,6.688 194.717,7.24 194.021,7.24 L192.797,7.24 L192.797,0.424 C192.797,0.232 192.629,0.04 192.413,0.04 L191.645,0.04 C191.429,0.04 191.261,0.232 191.261,0.424 C191.261,0.424 191.261,0.424 191.261,0.448 L191.261,7.24 L191.261,8.776 L191.261,15.616 C191.261,15.832 191.429,16 191.645,16 L192.413,16 C192.629,16 192.797,15.832 192.797,15.616 L192.797,8.776 L194.021,8.776 C194.717,8.776 195.269,9.328 195.269,10.024 L195.269,15.616 C195.269,15.832 195.437,16 195.653,16 L196.421,16 C196.613,16 196.805,15.832 196.805,15.616 L196.805,10.024 C196.805,9.232 196.469,8.512 195.941,8.008 C196.469,7.504 196.805,6.808 196.805,6.016 L196.805,0.424 Z M200.683,0.424 C200.683,0.232 200.515,0.04 200.299,0.04 L199.531,0.04 C199.315,0.04 199.147,0.232 199.147,0.424 C199.147,0.424 199.147,0.424 199.147,0.448 L199.147,15.616 C199.147,15.832 199.315,16 199.531,16 L200.299,16 C200.515,16 200.683,15.832 200.683,15.616 L200.683,0.424 L200.683,0.424 Z M207.393,4 L208.161,4 C208.377,4 208.545,3.832 208.545,3.616 L208.545,2.8 C208.545,1.288 207.297,0.04 205.785,0.04 C204.249,0.04 203.025,1.288 203.025,2.8 L203.025,13.24 C203.025,14.752 204.249,16 205.785,16 C207.297,16 208.545,14.752 208.545,13.24 L208.545,12.352 C208.545,12.136 208.377,11.968 208.161,11.968 L207.393,11.968 C207.177,11.968 207.009,12.136 207.009,12.352 L207.009,13.24 C207.009,13.912 206.457,14.464 205.785,14.464 C205.113,14.464 204.561,13.912 204.561,13.24 L204.561,2.8 C204.561,2.128 205.113,1.576 205.785,1.576 C206.457,1.576 207.009,2.128 207.009,2.8 L207.009,3.616 C207.009,3.832 207.177,4 207.393,4 L207.393,4 Z M216.191,0.424 C216.191,0.232 215.999,0.04 215.807,0.04 L215.039,0.04 C214.823,0.04 214.655,0.232 214.655,0.424 L214.655,6.016 C214.655,6.688 214.103,7.24 213.407,7.24 L212.183,7.24 L212.183,0.424 C212.183,0.232 212.015,0.04 211.799,0.04 L211.031,0.04 C210.815,0.04 210.647,0.232 210.647,0.424 C210.647,0.424 210.647,0.424 210.647,0.448 L210.647,7.24 L210.647,8.776 L210.647,15.616 C210.647,15.832 210.815,16 211.031,16 L211.799,16 C212.015,16 212.183,15.832 212.183,15.616 L212.183,8.776 L213.407,8.776 C214.103,8.776 214.655,9.328 214.655,10.024 L214.655,15.616 C214.655,15.832 214.823,16 215.039,16 L215.807,16 C215.999,16 216.191,15.832 216.191,15.616 L216.191,10.024 C216.191,9.232 215.855,8.512 215.327,8.008 C215.855,7.504 216.191,6.808 216.191,6.016 L216.191,0.424 Z" id="Anthony,--Annemiek--" sketch:type="MSShapeGroup"></path>
            </g>
        </g>
    </g>
</svg>